<svg width="200" height="200" viewBox="0 0 200 200" fill="none" xmlns="http://www.w3.org/2000/svg">
<path d="M188.271 0H11.7294C5.25145 0 0 5.83469 0 13.0321V186.968C0 194.165 5.25145 200 11.7294 200H188.271C194.749 200 200 194.165 200 186.968V13.0321C200 5.83469 194.749 0 188.271 0Z" fill="#0066F5"/>
<path d="M57.9111 71.5889V81.0591C57.9111 82.2726 59.2136 83.2563 60.8201 83.2563H139.18C140.787 83.2563 142.089 82.2726 142.089 81.0591V71.5889C142.089 70.3754 140.787 69.3916 139.18 69.3916H60.8201C59.2136 69.3916 57.9111 70.3754 57.9111 71.5889ZM63.729 73.7861H136.271V78.8618H63.729V73.7861Z" fill="white"/>
<path d="M172.091 25H27.9089C26.3024 25 25 25.9838 25 27.1973V57.204C25 58.4175 26.3024 59.4013 27.9089 59.4013C29.5154 59.4013 30.8179 58.4175 30.8179 57.204V29.3945H169.182V139.127C169.182 140.341 170.484 141.324 172.091 141.324C173.698 141.324 175 140.341 175 139.127V27.1973C175 25.9838 173.698 25 172.091 25Z" fill="white"/>
<path d="M172.091 147.21C170.484 147.21 169.182 148.194 169.182 149.407V170.606H30.8179V67.46C30.8179 66.2465 29.5154 65.2627 27.9089 65.2627C26.3024 65.2627 25 66.2465 25 67.46V172.803C25 174.016 26.3024 175 27.9089 175H172.091C173.698 175 175 174.016 175 172.803V149.407C175 148.194 173.698 147.21 172.091 147.21V147.21Z" fill="white"/>
<path d="M83.9366 40.6399C86.4945 40.6399 88.9613 41.2089 91.0704 42.285C92.4015 42.9646 94.2101 42.7001 95.1092 41.6943C96.0086 40.6889 95.6588 39.323 94.3273 38.6437C91.2527 37.0745 87.66 36.2451 83.9366 36.2451C73.6909 36.2451 65.3555 42.5413 65.3555 50.2801C65.3555 58.0191 73.6909 64.3153 83.9366 64.3153C88.0021 64.3153 91.6452 63.3102 94.4731 61.4082C95.0273 61.035 95.5541 60.6245 96.0385 60.1883C97.071 59.2584 96.91 57.8727 95.6789 57.0928C94.4479 56.3132 92.6133 56.4345 91.5808 57.3644C91.2768 57.6383 90.9475 57.8949 90.6031 58.1267C88.8333 59.317 86.5903 59.9208 83.9366 59.9208C76.8989 59.9208 71.1733 55.596 71.1733 50.2801C71.1737 44.9647 76.8989 40.6399 83.9366 40.6399V40.6399Z" fill="white"/>
<path d="M117.261 64.3158H117.285C118.823 64.3079 120.189 63.5635 120.69 62.449L130.925 39.1791C131.432 38.0274 130.606 36.7838 129.081 36.4012C127.557 36.0182 125.91 36.642 125.404 37.7936L117.215 56.4136L108.625 37.7224C108.099 36.5761 106.44 35.9693 104.924 36.3672C103.406 36.765 102.603 38.0172 103.129 39.1636L113.852 62.4991C114.365 63.5878 115.732 64.3158 117.261 64.3158V64.3158Z" fill="white"/>
<path d="M151.718 92.4756H78.0593C76.4528 92.4756 75.1504 93.4594 75.1504 94.6729C75.1504 95.8863 76.4528 96.8701 78.0593 96.8701H151.718C153.325 96.8701 154.627 95.8863 154.627 94.6729C154.627 93.4594 153.324 92.4756 151.718 92.4756Z" fill="white"/>
<path d="M45.374 94.6729C45.374 95.8863 46.6764 96.8701 48.283 96.8701H63.9547C65.5612 96.8701 66.8637 95.8863 66.8637 94.6729C66.8637 93.4594 65.5612 92.4756 63.9547 92.4756H48.283C46.6764 92.4756 45.374 93.4594 45.374 94.6729V94.6729Z" fill="white"/>
<path d="M151.718 103.13H78.0593C76.4528 103.13 75.1504 104.114 75.1504 105.327C75.1504 106.541 76.4528 107.524 78.0593 107.524H151.718C153.325 107.524 154.627 106.541 154.627 105.327C154.627 104.114 153.324 103.13 151.718 103.13Z" fill="white"/>
<path d="M48.283 107.524H63.9547C65.5612 107.524 66.8637 106.541 66.8637 105.327C66.8637 104.114 65.5612 103.13 63.9547 103.13H48.283C46.6764 103.13 45.374 104.114 45.374 105.327C45.374 106.541 46.6764 107.524 48.283 107.524V107.524Z" fill="white"/>
<path d="M151.718 113.784H78.0593C76.4528 113.784 75.1504 114.768 75.1504 115.981C75.1504 117.195 76.4528 118.179 78.0593 118.179H151.718C153.325 118.179 154.627 117.195 154.627 115.981C154.627 114.768 153.324 113.784 151.718 113.784Z" fill="white"/>
<path d="M48.283 118.179H63.9547C65.5612 118.179 66.8637 117.195 66.8637 115.981C66.8637 114.768 65.5612 113.784 63.9547 113.784H48.283C46.6764 113.784 45.374 114.768 45.374 115.981C45.374 117.195 46.6764 118.179 48.283 118.179V118.179Z" fill="white"/>
<path d="M151.718 124.438H78.0593C76.4528 124.438 75.1504 125.422 75.1504 126.636C75.1504 127.849 76.4528 128.833 78.0593 128.833H151.718C153.325 128.833 154.627 127.849 154.627 126.636C154.627 125.422 153.324 124.438 151.718 124.438Z" fill="white"/>
<path d="M48.283 128.833H63.9547C65.5612 128.833 66.8637 127.849 66.8637 126.636C66.8637 125.422 65.5612 124.438 63.9547 124.438H48.283C46.6764 124.438 45.374 125.422 45.374 126.636C45.374 127.849 46.6764 128.833 48.283 128.833V128.833Z" fill="white"/>
<path d="M151.718 135.092H78.0593C76.4528 135.092 75.1504 136.076 75.1504 137.289C75.1504 138.503 76.4528 139.486 78.0593 139.486H151.718C153.325 139.486 154.627 138.503 154.627 137.289C154.627 136.076 153.324 135.092 151.718 135.092Z" fill="white"/>
<path d="M48.283 139.486H63.9547C65.5612 139.486 66.8637 138.503 66.8637 137.289C66.8637 136.076 65.5612 135.092 63.9547 135.092H48.283C46.6764 135.092 45.374 136.076 45.374 137.289C45.374 138.503 46.6764 139.486 48.283 139.486V139.486Z" fill="white"/>
<path d="M151.718 151.665H120.374C118.767 151.665 117.465 152.649 117.465 153.862C117.465 155.076 118.767 156.06 120.374 156.06H151.718C153.325 156.06 154.627 155.076 154.627 153.862C154.627 152.649 153.324 151.665 151.718 151.665Z" fill="white"/>
</svg>
