<svg width="200" height="200" viewBox="0 0 200 200" fill="none" xmlns="http://www.w3.org/2000/svg">
<path d="M188.271 0H11.7294C5.25145 0 0 5.83469 0 13.0321V186.968C0 194.165 5.25145 200 11.7294 200H188.271C194.749 200 200 194.165 200 186.968V13.0321C200 5.83469 194.749 0 188.271 0Z" fill="#0066F5"/>
<path d="M100 25C58.5625 25 25 59.4343 25 101.903C25 135.887 46.4875 164.707 76.2812 174.867C80.0312 175.591 81.4062 173.211 81.4062 171.17C81.4062 169.343 81.3438 164.504 81.3125 158.094C60.45 162.731 56.05 147.776 56.05 147.776C52.6375 138.9 47.7062 136.527 47.7062 136.527C40.9125 131.759 48.2313 131.857 48.2313 131.857C55.7625 132.392 59.7187 139.781 59.7187 139.781C66.4062 151.539 77.275 148.142 81.5625 146.179C82.2375 141.203 84.1688 137.818 86.3125 135.894C69.6563 133.97 52.15 127.357 52.15 97.8924C52.15 89.499 55.0563 82.6383 59.8687 77.2579C59.025 75.3145 56.4938 67.495 60.525 56.9039C60.525 56.9039 66.8063 54.843 81.15 64.7885C87.15 63.0799 93.525 62.2321 99.9 62.1929C106.275 62.2321 112.65 63.0799 118.65 64.7885C132.9 54.843 139.181 56.9039 139.181 56.9039C143.212 67.495 140.681 75.3145 139.931 77.2579C144.712 82.6383 147.619 89.499 147.619 97.8924C147.619 127.435 130.088 133.938 113.4 135.829C116.025 138.137 118.463 142.853 118.463 150.059C118.463 160.35 118.369 168.62 118.369 171.117C118.369 173.133 119.681 175.539 123.525 174.77C153.531 164.674 175 135.835 175 101.903C175 59.4343 141.419 25 100 25V25Z" fill="white"/>
</svg>
