<svg width="200" height="200" viewBox="0 0 200 200" fill="none" xmlns="http://www.w3.org/2000/svg">
<path d="M188.271 0H11.7294C5.25145 0 0 5.83469 0 13.0321V186.968C0 194.165 5.25145 200 11.7294 200H188.271C194.749 200 200 194.165 200 186.968V13.0321C200 5.83469 194.749 0 188.271 0Z" fill="#0066F5"/>
<path d="M100 25C58.585 25 25 58.585 25 100C25 141.415 58.585 175 100 175C141.415 175 175 141.415 175 100C175 58.585 141.415 25 100 25ZM78.2059 138.379H59.94V83.4255H78.2059V138.379ZM69.0735 75.9216H68.9545C62.825 75.9216 58.8608 71.7022 58.8608 66.4288C58.8608 61.0363 62.9463 56.9336 69.1948 56.9336C75.4433 56.9336 79.2885 61.0363 79.4075 66.4288C79.4075 71.7022 75.4433 75.9216 69.0735 75.9216ZM144.069 138.379H125.805V108.98C125.805 101.592 123.161 96.553 116.552 96.553C111.506 96.553 108.501 99.9519 107.18 103.233C106.697 104.407 106.579 106.048 106.579 107.69V138.379H88.3144C88.3144 138.379 88.5536 88.5811 88.3144 83.4255H106.579V91.2064C109.007 87.4619 113.35 82.1358 123.04 82.1358C135.058 82.1358 144.069 89.9899 144.069 106.869V138.379Z" fill="white"/>
</svg>
