<svg width="140" height="46" viewBox="0 0 140 46" fill="none" xmlns="http://www.w3.org/2000/svg">
<path d="M7.28 13.48V41.128C7.28 41.832 7.168 42.48 6.944 43.072C6.72 43.664 6.4 44.176 5.984 44.608C5.584 45.04 5.096 45.376 4.52 45.616C3.944 45.856 3.296 45.976 2.576 45.976C2.144 45.976 1.776 45.928 1.472 45.832C1.152 45.752 0.848 45.624 0.56 45.448L0.656 45.256C0.72 45.128 0.792 45.064 0.872 45.064C0.952 45.08 1.064 45.12 1.208 45.184C1.352 45.248 1.536 45.312 1.76 45.376C1.984 45.456 2.256 45.496 2.576 45.496C3.936 45.496 4.96 45.088 5.648 44.272C6.352 43.472 6.704 42.424 6.704 41.128V13.48H7.28ZM8.312 4.744C8.312 5.08 8.168 5.384 7.88 5.656C7.608 5.912 7.304 6.04 6.968 6.04C6.6 6.04 6.28 5.912 6.008 5.656C5.752 5.384 5.624 5.08 5.624 4.744C5.624 4.376 5.752 4.064 6.008 3.808C6.28 3.536 6.6 3.4 6.968 3.4C7.304 3.4 7.608 3.536 7.88 3.808C8.168 4.064 8.312 4.376 8.312 4.744ZM19.3764 18.376C19.9204 17.576 20.5284 16.848 21.2004 16.192C21.8884 15.536 22.6244 14.984 23.4084 14.536C24.1924 14.072 25.0164 13.72 25.8804 13.48C26.7444 13.224 27.6324 13.096 28.5444 13.096C31.1524 13.096 33.0964 13.872 34.3764 15.424C35.6724 16.976 36.3204 19.144 36.3204 21.928V37H35.7444V21.928C35.7444 20.616 35.6004 19.448 35.3124 18.424C35.0244 17.384 34.5764 16.504 33.9684 15.784C33.3764 15.064 32.6244 14.52 31.7124 14.152C30.8164 13.768 29.7604 13.576 28.5444 13.576C26.7044 13.576 25.0084 14.064 23.4564 15.04C21.9044 16.016 20.5444 17.368 19.3764 19.096V37H18.8004V2.44H19.3764V18.376ZM60.8457 24.952C55.8057 25.112 52.0537 25.744 49.5897 26.848C47.1417 27.936 45.9177 29.48 45.9177 31.48C45.9177 32.424 46.0697 33.24 46.3737 33.928C46.6937 34.6 47.1097 35.16 47.6217 35.608C48.1337 36.04 48.7177 36.368 49.3737 36.592C50.0297 36.8 50.7017 36.904 51.3897 36.904C52.4937 36.904 53.4937 36.776 54.3898 36.52C55.2857 36.264 56.1097 35.92 56.8617 35.488C57.6298 35.056 58.3338 34.56 58.9737 34C59.6297 33.424 60.2537 32.824 60.8457 32.2V24.952ZM46.5897 16.84C47.7417 15.624 48.9337 14.696 50.1657 14.056C51.3977 13.416 52.8297 13.096 54.4617 13.096C55.6618 13.096 56.6937 13.288 57.5577 13.672C58.4377 14.056 59.1657 14.608 59.7417 15.328C60.3177 16.048 60.7418 16.928 61.0138 17.968C61.2857 18.992 61.4217 20.152 61.4217 21.448V37H61.3257C61.1017 37 60.9897 36.872 60.9897 36.616L60.8457 32.776C60.1737 33.48 59.5017 34.12 58.8298 34.696C58.1578 35.256 57.4458 35.736 56.6938 36.136C55.9417 36.536 55.1337 36.84 54.2698 37.048C53.4057 37.272 52.4457 37.384 51.3897 37.384C50.6857 37.384 49.9737 37.272 49.2537 37.048C48.5337 36.84 47.8857 36.504 47.3097 36.04C46.7337 35.56 46.2617 34.952 45.8937 34.216C45.5257 33.464 45.3417 32.552 45.3417 31.48C45.3417 30.424 45.6537 29.48 46.2777 28.648C46.9017 27.8 47.8457 27.08 49.1097 26.488C50.3897 25.896 51.9977 25.432 53.9337 25.096C55.8857 24.744 58.1897 24.536 60.8457 24.472V21.448C60.8457 20.216 60.7097 19.112 60.4377 18.136C60.1658 17.16 59.7658 16.336 59.2378 15.664C58.7097 14.992 58.0457 14.48 57.2458 14.128C56.4458 13.76 55.5178 13.576 54.4617 13.576C53.6297 13.576 52.8777 13.664 52.2057 13.84C51.5337 14.016 50.9337 14.232 50.4057 14.488C49.8777 14.744 49.4137 15.024 49.0137 15.328C48.6297 15.632 48.2937 15.912 48.0057 16.168C47.7177 16.424 47.4857 16.64 47.3097 16.816C47.1337 16.992 47.0057 17.08 46.9257 17.08C46.8617 17.08 46.7817 17.032 46.6857 16.936L46.5897 16.84ZM89.9011 13.48L76.0291 45.112C75.9811 45.24 75.9091 45.36 75.8131 45.472C75.7171 45.584 75.5971 45.64 75.4531 45.64H75.1171L79.1491 36.592L68.9731 13.48H69.3091C69.4371 13.48 69.5411 13.52 69.6211 13.6C69.7011 13.664 69.7571 13.736 69.7891 13.816L79.1491 35.176C79.2771 35.448 79.3811 35.744 79.4611 36.064C79.4931 35.92 79.5331 35.776 79.5811 35.632C79.6451 35.472 79.7091 35.32 79.7731 35.176L89.1331 13.816C89.2451 13.592 89.3891 13.48 89.5651 13.48H89.9011ZM139.158 37H132.726C132.278 37 131.918 36.888 131.646 36.664C131.39 36.44 131.182 36.184 131.022 35.896L122.982 22.576C122.854 22.976 122.702 23.32 122.526 23.608L114.822 35.896C114.63 36.168 114.406 36.424 114.15 36.664C113.91 36.888 113.59 37 113.19 37H107.166L118.686 19.144L107.622 2.296H114.054C114.502 2.296 114.822 2.36 115.014 2.488C115.222 2.6 115.414 2.792 115.59 3.064L123.486 15.784C123.646 15.384 123.838 14.984 124.062 14.584L131.31 3.184C131.486 2.88 131.678 2.656 131.886 2.512C132.094 2.368 132.358 2.296 132.678 2.296H138.846L127.686 18.88L139.158 37Z" fill="#0066F5"/>
<path d="M98.6015 0.808H99.6095V45.616H98.6015V0.808Z" fill="#E0E0E0"/>
</svg>
