<svg width="1275" height="190" viewBox="0 0 1275 190" fill="none" xmlns="http://www.w3.org/2000/svg">
<path d="M7.488 16.08V30.36H22.968V32.4H7.488V48H5.016V14.04H25.368V16.08H7.488ZM60.8618 46.248C62.4938 46.248 63.9498 45.968 65.2298 45.408C66.5258 44.832 67.6218 44.04 68.5177 43.032C69.4137 42.024 70.0938 40.84 70.5578 39.48C71.0378 38.104 71.2778 36.624 71.2778 35.04V14.04H73.7257V35.04C73.7257 36.912 73.4298 38.664 72.8378 40.296C72.2458 41.912 71.3898 43.328 70.2698 44.544C69.1658 45.744 67.8138 46.688 66.2138 47.376C64.6298 48.064 62.8458 48.408 60.8618 48.408C58.8778 48.408 57.0858 48.064 55.4858 47.376C53.9018 46.688 52.5498 45.744 51.4298 44.544C50.3258 43.328 49.4778 41.912 48.8858 40.296C48.2938 38.664 47.9978 36.912 47.9978 35.04V14.04H50.4697V35.016C50.4697 36.6 50.7017 38.08 51.1658 39.456C51.6458 40.816 52.3258 42 53.2058 43.008C54.1018 44.016 55.1898 44.808 56.4698 45.384C57.7657 45.96 59.2298 46.248 60.8618 46.248ZM118.177 45.912V48H99.6247V14.04H102.097V45.912H118.177ZM158.778 45.912V48H140.226V14.04H142.698V45.912H158.778ZM197.315 18.168C197.171 18.44 196.963 18.576 196.691 18.576C196.483 18.576 196.211 18.432 195.875 18.144C195.555 17.84 195.115 17.512 194.555 17.16C193.995 16.792 193.291 16.456 192.443 16.152C191.611 15.848 190.579 15.696 189.347 15.696C188.115 15.696 187.027 15.872 186.083 16.224C185.155 16.576 184.371 17.056 183.731 17.664C183.107 18.272 182.627 18.976 182.291 19.776C181.971 20.576 181.811 21.416 181.811 22.296C181.811 23.448 182.051 24.4 182.531 25.152C183.027 25.904 183.675 26.544 184.475 27.072C185.275 27.6 186.179 28.048 187.187 28.416C188.211 28.768 189.259 29.12 190.331 29.472C191.403 29.824 192.443 30.216 193.451 30.648C194.475 31.064 195.387 31.592 196.187 32.232C196.987 32.872 197.627 33.664 198.107 34.608C198.603 35.536 198.851 36.696 198.851 38.088C198.851 39.512 198.603 40.856 198.107 42.12C197.627 43.368 196.923 44.456 195.995 45.384C195.067 46.312 193.931 47.048 192.587 47.592C191.243 48.12 189.707 48.384 187.979 48.384C185.739 48.384 183.811 47.992 182.195 47.208C180.579 46.408 179.163 45.32 177.947 43.944L178.619 42.888C178.811 42.648 179.035 42.528 179.291 42.528C179.435 42.528 179.619 42.624 179.843 42.816C180.067 43.008 180.339 43.248 180.659 43.536C180.979 43.808 181.363 44.112 181.811 44.448C182.259 44.768 182.779 45.072 183.371 45.36C183.963 45.632 184.643 45.864 185.411 46.056C186.179 46.248 187.051 46.344 188.027 46.344C189.371 46.344 190.571 46.144 191.627 45.744C192.683 45.328 193.571 44.768 194.291 44.064C195.027 43.36 195.587 42.528 195.971 41.568C196.355 40.592 196.547 39.552 196.547 38.448C196.547 37.248 196.299 36.264 195.803 35.496C195.323 34.712 194.683 34.064 193.883 33.552C193.083 33.024 192.171 32.584 191.147 32.232C190.139 31.88 189.099 31.536 188.027 31.2C186.955 30.864 185.907 30.488 184.883 30.072C183.875 29.656 182.971 29.128 182.171 28.488C181.371 27.832 180.723 27.024 180.227 26.064C179.747 25.088 179.507 23.872 179.507 22.416C179.507 21.28 179.723 20.184 180.155 19.128C180.587 18.072 181.219 17.144 182.051 16.344C182.883 15.528 183.907 14.88 185.123 14.4C186.355 13.904 187.755 13.656 189.323 13.656C191.083 13.656 192.659 13.936 194.051 14.496C195.459 15.056 196.739 15.912 197.891 17.064L197.315 18.168ZM244.915 16.128H232.987V48H230.515V16.128H218.515V14.04H244.915V16.128ZM281.935 35.664L275.023 18.504C274.783 17.944 274.551 17.272 274.327 16.488C274.231 16.872 274.127 17.24 274.015 17.592C273.903 17.928 273.783 18.24 273.655 18.528L266.743 35.664H281.935ZM289.447 48H287.551C287.327 48 287.143 47.944 286.999 47.832C286.855 47.704 286.743 47.544 286.663 47.352L282.679 37.488H265.999L262.015 47.352C261.951 47.528 261.839 47.68 261.679 47.808C261.519 47.936 261.327 48 261.103 48H259.231L273.127 14.04H275.551L289.447 48ZM335.151 42.288C335.311 42.288 335.447 42.344 335.559 42.456L336.519 43.488C335.815 44.24 335.047 44.92 334.215 45.528C333.399 46.12 332.495 46.632 331.503 47.064C330.527 47.48 329.447 47.8 328.263 48.024C327.095 48.264 325.807 48.384 324.399 48.384C322.047 48.384 319.887 47.976 317.919 47.16C315.967 46.328 314.287 45.16 312.879 43.656C311.471 42.136 310.375 40.304 309.591 38.16C308.823 36.016 308.439 33.632 308.439 31.008C308.439 28.432 308.839 26.08 309.639 23.952C310.439 21.824 311.559 20 312.999 18.48C314.439 16.944 316.167 15.76 318.183 14.928C320.199 14.08 322.423 13.656 324.855 13.656C327.175 13.656 329.231 14.016 331.023 14.736C332.815 15.456 334.447 16.472 335.919 17.784L335.175 18.864C335.047 19.056 334.847 19.152 334.575 19.152C334.383 19.152 334.071 18.976 333.639 18.624C333.207 18.272 332.607 17.888 331.839 17.472C331.071 17.04 330.111 16.648 328.959 16.296C327.823 15.944 326.455 15.768 324.855 15.768C322.807 15.768 320.927 16.12 319.215 16.824C317.519 17.528 316.055 18.536 314.823 19.848C313.607 21.16 312.655 22.76 311.967 24.648C311.279 26.536 310.935 28.656 310.935 31.008C310.935 33.408 311.279 35.552 311.967 37.44C312.671 39.328 313.631 40.928 314.847 42.24C316.063 43.536 317.495 44.536 319.143 45.24C320.807 45.928 322.599 46.272 324.519 46.272C325.735 46.272 326.815 46.192 327.759 46.032C328.719 45.872 329.599 45.632 330.399 45.312C331.199 44.992 331.943 44.6 332.631 44.136C333.319 43.672 333.999 43.128 334.671 42.504C334.751 42.44 334.831 42.392 334.911 42.36C334.991 42.312 335.071 42.288 335.151 42.288ZM361.876 29.712H363.892C364.196 29.712 364.46 29.704 364.684 29.688C364.908 29.656 365.108 29.608 365.284 29.544C365.476 29.48 365.644 29.392 365.788 29.28C365.948 29.152 366.116 29 366.292 28.824L379.996 14.736C380.236 14.464 380.468 14.28 380.692 14.184C380.932 14.088 381.212 14.04 381.532 14.04H383.5L368.668 29.28C368.364 29.6 368.092 29.848 367.852 30.024C367.628 30.2 367.372 30.344 367.084 30.456C367.42 30.552 367.724 30.704 367.996 30.912C368.268 31.104 368.54 31.36 368.812 31.68L384.436 48H382.444C382.028 48 381.724 47.952 381.532 47.856C381.356 47.744 381.18 47.576 381.004 47.352L366.652 32.664C366.476 32.488 366.308 32.336 366.148 32.208C366.004 32.08 365.836 31.976 365.644 31.896C365.468 31.8 365.252 31.736 364.996 31.704C364.756 31.656 364.444 31.632 364.06 31.632H361.876V48H359.404V14.04H361.876V29.712ZM455.944 45.96L455.896 48H435.544V14.04H455.896V16.08H438.016V29.808H452.896V31.8H438.016V45.96H455.944ZM505.916 14.04V48H504.764C504.556 48 504.38 47.968 504.236 47.904C504.108 47.824 503.98 47.696 503.852 47.52L481.796 18.048C481.844 18.528 481.868 18.984 481.868 19.416V48H479.708V14.04H480.932C481.156 14.04 481.324 14.072 481.436 14.136C481.564 14.184 481.7 14.304 481.844 14.496L503.852 43.896C503.804 43.416 503.78 42.96 503.78 42.528V14.04H505.916ZM559.382 32.592V44.664C557.686 45.864 555.878 46.784 553.958 47.424C552.038 48.064 549.878 48.384 547.478 48.384C544.79 48.384 542.374 47.976 540.23 47.16C538.086 46.328 536.254 45.16 534.734 43.656C533.23 42.136 532.07 40.304 531.254 38.16C530.454 36.016 530.054 33.632 530.054 31.008C530.054 28.384 530.446 26.008 531.23 23.88C532.03 21.736 533.166 19.912 534.638 18.408C536.126 16.888 537.918 15.72 540.014 14.904C542.11 14.072 544.47 13.656 547.094 13.656C548.39 13.656 549.582 13.744 550.67 13.92C551.774 14.096 552.798 14.36 553.742 14.712C554.686 15.048 555.566 15.472 556.382 15.984C557.198 16.48 557.982 17.056 558.734 17.712L558.062 18.768C557.838 19.152 557.502 19.24 557.054 19.032C556.814 18.936 556.47 18.712 556.022 18.36C555.574 18.008 554.958 17.64 554.174 17.256C553.39 16.872 552.414 16.528 551.246 16.224C550.094 15.92 548.686 15.768 547.022 15.768C544.814 15.768 542.814 16.12 541.022 16.824C539.246 17.528 537.726 18.536 536.462 19.848C535.214 21.16 534.246 22.76 533.558 24.648C532.886 26.536 532.55 28.656 532.55 31.008C532.55 33.392 532.886 35.536 533.558 37.44C534.246 39.344 535.23 40.96 536.51 42.288C537.806 43.616 539.374 44.632 541.214 45.336C543.054 46.04 545.126 46.392 547.43 46.392C548.438 46.392 549.366 46.328 550.214 46.2C551.078 46.072 551.894 45.896 552.662 45.672C553.446 45.432 554.198 45.144 554.918 44.808C555.654 44.456 556.398 44.064 557.15 43.632V34.488H550.646C550.47 34.488 550.318 34.432 550.19 34.32C550.078 34.208 550.022 34.08 550.022 33.936V32.592H559.382ZM586.351 48H583.879V14.04H586.351V48ZM638.923 14.04V48H637.771C637.563 48 637.387 47.968 637.243 47.904C637.115 47.824 636.987 47.696 636.859 47.52L614.803 18.048C614.851 18.528 614.875 18.984 614.875 19.416V48H612.715V14.04H613.939C614.163 14.04 614.331 14.072 614.443 14.136C614.571 14.184 614.707 14.304 614.851 14.496L636.859 43.896C636.811 43.416 636.787 42.96 636.787 42.528V14.04H638.923ZM685.669 45.96L685.621 48H665.269V14.04H685.621V16.08H667.741V29.808H682.621V31.8H667.741V45.96H685.669ZM729.833 45.96L729.785 48H709.433V14.04H729.785V16.08H711.905V29.808H726.785V31.8H711.905V45.96H729.833ZM761.949 30.816C763.453 30.816 764.797 30.64 765.981 30.288C767.181 29.92 768.189 29.4 769.005 28.728C769.837 28.056 770.469 27.248 770.901 26.304C771.333 25.36 771.549 24.296 771.549 23.112C771.549 20.696 770.757 18.904 769.173 17.736C767.605 16.568 765.309 15.984 762.285 15.984H756.069V30.816H761.949ZM777.021 48H774.909C774.637 48 774.405 47.96 774.213 47.88C774.037 47.784 773.869 47.616 773.709 47.376L762.813 33.6C762.685 33.424 762.549 33.272 762.405 33.144C762.277 33.016 762.125 32.92 761.949 32.856C761.789 32.776 761.589 32.72 761.349 32.688C761.125 32.656 760.845 32.64 760.509 32.64H756.069V48H753.597V14.04H762.285C766.189 14.04 769.109 14.8 771.045 16.32C772.997 17.824 773.973 20.04 773.973 22.968C773.973 24.264 773.749 25.448 773.301 26.52C772.853 27.592 772.205 28.536 771.357 29.352C770.525 30.152 769.509 30.808 768.309 31.32C767.125 31.832 765.789 32.176 764.301 32.352C764.685 32.592 765.029 32.912 765.333 33.312L777.021 48Z" fill="#0066F5"/>
<path d="M74.592 126.152C74.592 131.24 73.728 135.96 72 140.312C70.304 144.664 67.888 148.424 64.752 151.592C61.648 154.76 57.904 157.256 53.52 159.08C49.136 160.872 44.272 161.768 38.928 161.768C33.584 161.768 28.72 160.872 24.336 159.08C19.952 157.256 16.192 154.76 13.056 151.592C9.92 148.424 7.488 144.664 5.76 140.312C4.064 135.96 3.216 131.24 3.216 126.152C3.216 121.064 4.064 116.36 5.76 112.04C7.488 107.688 9.92 103.928 13.056 100.76C16.192 97.592 19.952 95.112 24.336 93.32C28.72 91.496 33.584 90.584 38.928 90.584C44.272 90.584 49.136 91.496 53.52 93.32C57.904 95.112 61.648 97.608 64.752 100.808C67.888 103.976 70.304 107.736 72 112.088C73.728 116.408 74.592 121.096 74.592 126.152ZM59.856 126.152C59.856 122.504 59.376 119.24 58.416 116.36C57.456 113.448 56.064 110.984 54.24 108.968C52.448 106.92 50.256 105.368 47.664 104.312C45.104 103.224 42.192 102.68 38.928 102.68C35.664 102.68 32.736 103.224 30.144 104.312C27.552 105.368 25.344 106.92 23.52 108.968C21.728 110.984 20.352 113.448 19.392 116.36C18.432 119.24 17.952 122.504 17.952 126.152C17.952 129.832 18.432 133.128 19.392 136.04C20.352 138.92 21.728 141.368 23.52 143.384C25.344 145.4 27.552 146.952 30.144 148.04C32.736 149.096 35.664 149.624 38.928 149.624C42.192 149.624 45.104 149.096 47.664 148.04C50.256 146.952 52.448 145.4 54.24 143.384C56.064 141.368 57.456 138.92 58.416 136.04C59.376 133.128 59.856 129.832 59.856 126.152ZM131.237 149.288V161H89.9085V91.352H104.309V149.288H131.237ZM171.689 149.48C174.025 149.48 176.121 149.096 177.977 148.328C179.833 147.528 181.401 146.408 182.681 144.968C183.961 143.528 184.937 141.784 185.609 139.736C186.281 137.688 186.617 135.384 186.617 132.824V91.352H201.017V132.824C201.017 137.048 200.329 140.936 198.953 144.488C197.609 148.008 195.673 151.048 193.145 153.608C190.617 156.168 187.545 158.168 183.929 159.608C180.313 161.048 176.233 161.768 171.689 161.768C167.145 161.768 163.049 161.048 159.401 159.608C155.785 158.168 152.713 156.168 150.185 153.608C147.657 151.048 145.705 148.008 144.329 144.488C142.985 140.936 142.313 137.048 142.313 132.824V91.352H156.713V132.824C156.713 135.384 157.049 137.688 157.721 139.736C158.393 141.784 159.369 143.528 160.649 144.968C161.929 146.408 163.497 147.528 165.353 148.328C167.209 149.096 169.321 149.48 171.689 149.48ZM313.204 91.352L291.604 161H278.596L264.34 115.448C264.116 114.808 263.892 114.104 263.668 113.336C263.444 112.568 263.236 111.752 263.044 110.888C262.852 111.752 262.644 112.568 262.42 113.336C262.196 114.104 261.972 114.808 261.748 115.448L247.348 161H234.292L212.74 91.352H224.836C226.084 91.352 227.124 91.64 227.956 92.216C228.82 92.792 229.38 93.56 229.636 94.52L240.436 133.784C240.692 134.872 240.948 136.056 241.204 137.336C241.492 138.584 241.764 139.912 242.02 141.32C242.308 139.88 242.612 138.536 242.932 137.288C243.252 136.04 243.604 134.872 243.988 133.784L256.564 94.52C256.82 93.72 257.364 93 258.196 92.36C259.06 91.688 260.1 91.352 261.316 91.352H265.54C266.788 91.352 267.796 91.656 268.564 92.264C269.364 92.84 269.956 93.592 270.34 94.52L282.868 133.784C283.252 134.808 283.604 135.928 283.924 137.144C284.244 138.328 284.548 139.592 284.837 140.936C285.092 139.592 285.332 138.328 285.556 137.144C285.812 135.928 286.068 134.808 286.324 133.784L297.124 94.52C297.348 93.688 297.892 92.952 298.756 92.312C299.62 91.672 300.66 91.352 301.876 91.352H313.204ZM357.827 134.552L350.291 113.24C349.843 112.12 349.363 110.808 348.851 109.304C348.371 107.8 347.907 106.168 347.459 104.408C347.011 106.2 346.531 107.864 346.019 109.4C345.539 110.904 345.075 112.216 344.627 113.336L337.139 134.552H357.827ZM382.019 161H370.835C369.587 161 368.563 160.712 367.763 160.136C366.995 159.528 366.419 158.76 366.035 157.832L361.331 144.536H333.587L328.883 157.832C328.563 158.632 328.003 159.368 327.203 160.04C326.403 160.68 325.395 161 324.179 161H312.899L340.115 91.352H354.851L382.019 161ZM420.817 136.04C420.817 139.944 420.337 143.48 419.377 146.648C418.417 149.784 416.961 152.488 415.009 154.76C413.089 157 410.673 158.728 407.761 159.944C404.849 161.16 401.457 161.768 397.585 161.768C395.825 161.768 394.081 161.656 392.353 161.432C390.657 161.24 388.865 160.92 386.977 160.472C387.105 159.064 387.233 157.656 387.361 156.248C387.489 154.84 387.617 153.432 387.745 152.024C387.841 151.256 388.145 150.648 388.657 150.2C389.169 149.72 389.905 149.48 390.865 149.48C391.409 149.48 392.097 149.576 392.929 149.768C393.793 149.96 394.849 150.056 396.097 150.056C397.825 150.056 399.329 149.816 400.609 149.336C401.889 148.856 402.961 148.072 403.825 146.984C404.689 145.896 405.329 144.488 405.745 142.76C406.193 141 406.417 138.872 406.417 136.376V91.352H420.817V136.04ZM468.014 149.48C470.35 149.48 472.446 149.096 474.302 148.328C476.158 147.528 477.726 146.408 479.006 144.968C480.286 143.528 481.262 141.784 481.934 139.736C482.606 137.688 482.942 135.384 482.942 132.824V91.352H497.342V132.824C497.342 137.048 496.654 140.936 495.278 144.488C493.934 148.008 491.998 151.048 489.47 153.608C486.942 156.168 483.87 158.168 480.254 159.608C476.638 161.048 472.558 161.768 468.014 161.768C463.47 161.768 459.374 161.048 455.726 159.608C452.11 158.168 449.038 156.168 446.51 153.608C443.982 151.048 442.03 148.008 440.654 144.488C439.31 140.936 438.638 137.048 438.638 132.824V91.352H453.038V132.824C453.038 135.384 453.374 137.688 454.046 139.736C454.718 141.784 455.694 143.528 456.974 144.968C458.254 146.408 459.822 147.528 461.678 148.328C463.534 149.096 465.646 149.48 468.014 149.48ZM609.53 91.352L587.93 161H574.922L560.666 115.448C560.442 114.808 560.218 114.104 559.994 113.336C559.77 112.568 559.562 111.752 559.37 110.888C559.178 111.752 558.97 112.568 558.746 113.336C558.522 114.104 558.298 114.808 558.074 115.448L543.674 161H530.618L509.066 91.352H521.162C522.41 91.352 523.45 91.64 524.282 92.216C525.146 92.792 525.706 93.56 525.962 94.52L536.762 133.784C537.018 134.872 537.274 136.056 537.53 137.336C537.818 138.584 538.09 139.912 538.346 141.32C538.634 139.88 538.938 138.536 539.258 137.288C539.578 136.04 539.93 134.872 540.314 133.784L552.89 94.52C553.146 93.72 553.69 93 554.522 92.36C555.386 91.688 556.426 91.352 557.642 91.352H561.866C563.114 91.352 564.122 91.656 564.89 92.264C565.69 92.84 566.282 93.592 566.666 94.52L579.194 133.784C579.578 134.808 579.93 135.928 580.25 137.144C580.57 138.328 580.874 139.592 581.162 140.936C581.418 139.592 581.658 138.328 581.882 137.144C582.138 135.928 582.394 134.808 582.65 133.784L593.45 94.52C593.674 93.688 594.218 92.952 595.082 92.312C595.946 91.672 596.986 91.352 598.202 91.352H609.53ZM687.867 126.152C687.867 131.24 687.003 135.96 685.275 140.312C683.579 144.664 681.163 148.424 678.027 151.592C674.923 154.76 671.179 157.256 666.795 159.08C662.411 160.872 657.547 161.768 652.203 161.768C646.859 161.768 641.995 160.872 637.611 159.08C633.227 157.256 629.467 154.76 626.331 151.592C623.195 148.424 620.763 144.664 619.035 140.312C617.339 135.96 616.491 131.24 616.491 126.152C616.491 121.064 617.339 116.36 619.035 112.04C620.763 107.688 623.195 103.928 626.331 100.76C629.467 97.592 633.227 95.112 637.611 93.32C641.995 91.496 646.859 90.584 652.203 90.584C657.547 90.584 662.411 91.496 666.795 93.32C671.179 95.112 674.923 97.608 678.027 100.808C681.163 103.976 683.579 107.736 685.275 112.088C687.003 116.408 687.867 121.096 687.867 126.152ZM673.131 126.152C673.131 122.504 672.651 119.24 671.691 116.36C670.731 113.448 669.339 110.984 667.515 108.968C665.723 106.92 663.531 105.368 660.939 104.312C658.379 103.224 655.467 102.68 652.203 102.68C648.939 102.68 646.011 103.224 643.419 104.312C640.827 105.368 638.619 106.92 636.795 108.968C635.003 110.984 633.627 113.448 632.667 116.36C631.707 119.24 631.227 122.504 631.227 126.152C631.227 129.832 631.707 133.128 632.667 136.04C633.627 138.92 635.003 141.368 636.795 143.384C638.619 145.4 640.827 146.952 643.419 148.04C646.011 149.096 648.939 149.624 652.203 149.624C655.467 149.624 658.379 149.096 660.939 148.04C663.531 146.952 665.723 145.4 667.515 143.384C669.339 141.368 670.731 138.92 671.691 136.04C672.651 133.128 673.131 129.832 673.131 126.152ZM762.848 91.352V161H755.408C754.288 161 753.344 160.824 752.576 160.472C751.808 160.088 751.056 159.448 750.32 158.552L715.616 114.392C715.712 115.512 715.776 116.616 715.808 117.704C715.872 118.792 715.904 119.8 715.904 120.728V161H703.184V91.352H710.768C711.376 91.352 711.888 91.384 712.304 91.448C712.752 91.48 713.152 91.592 713.504 91.784C713.856 91.944 714.192 92.168 714.512 92.456C714.832 92.744 715.184 93.128 715.568 93.608L750.512 137.96C750.384 136.744 750.288 135.576 750.224 134.456C750.16 133.304 750.128 132.216 750.128 131.192V91.352H762.848ZM843.301 134.552L835.765 113.24C835.317 112.12 834.837 110.808 834.325 109.304C833.845 107.8 833.381 106.168 832.933 104.408C832.485 106.2 832.005 107.864 831.493 109.4C831.013 110.904 830.549 112.216 830.101 113.336L822.613 134.552H843.301ZM867.493 161H856.309C855.061 161 854.037 160.712 853.237 160.136C852.469 159.528 851.893 158.76 851.509 157.832L846.805 144.536H819.061L814.357 157.832C814.037 158.632 813.477 159.368 812.677 160.04C811.877 160.68 810.869 161 809.653 161H798.373L825.589 91.352H840.325L867.493 161ZM905.476 149.96C907.78 149.96 909.668 149.688 911.14 149.144C912.644 148.568 913.844 147.816 914.74 146.888C915.636 145.96 916.26 144.904 916.612 143.72C916.964 142.504 917.14 141.256 917.14 139.976C917.14 138.568 916.932 137.304 916.516 136.184C916.1 135.064 915.428 134.12 914.5 133.352C913.572 132.552 912.356 131.944 910.852 131.528C909.38 131.112 907.556 130.904 905.38 130.904H893.14V149.96H905.476ZM893.14 102.296V121.112H902.596C904.612 121.112 906.404 120.952 907.972 120.632C909.54 120.28 910.852 119.736 911.908 119C912.964 118.264 913.764 117.304 914.308 116.12C914.884 114.904 915.172 113.448 915.172 111.752C915.172 110.024 914.932 108.552 914.452 107.336C914.004 106.12 913.3 105.144 912.34 104.408C911.38 103.672 910.164 103.144 908.692 102.824C907.22 102.472 905.476 102.296 903.46 102.296H893.14ZM903.46 91.352C908.132 91.352 912.116 91.8 915.412 92.696C918.74 93.56 921.444 94.808 923.524 96.44C925.636 98.04 927.172 99.992 928.132 102.296C929.092 104.6 929.572 107.176 929.572 110.024C929.572 111.624 929.332 113.16 928.852 114.632C928.404 116.104 927.684 117.496 926.692 118.808C925.732 120.088 924.484 121.256 922.948 122.312C921.412 123.368 919.588 124.264 917.476 125C922.212 126.12 925.716 127.944 927.988 130.472C930.26 133 931.396 136.28 931.396 140.312C931.396 143.256 930.82 145.992 929.668 148.52C928.548 151.048 926.9 153.24 924.724 155.096C922.548 156.952 919.86 158.408 916.66 159.464C913.492 160.488 909.844 161 905.716 161H878.74V91.352H903.46ZM961.692 161H947.196V91.352H961.692V161ZM1048.35 126.152C1048.35 131.24 1047.49 135.96 1045.76 140.312C1044.07 144.664 1041.65 148.424 1038.51 151.592C1035.41 154.76 1031.67 157.256 1027.28 159.08C1022.9 160.872 1018.03 161.768 1012.69 161.768C1007.35 161.768 1002.48 160.872 998.099 159.08C993.715 157.256 989.955 154.76 986.819 151.592C983.683 148.424 981.251 144.664 979.523 140.312C977.827 135.96 976.979 131.24 976.979 126.152C976.979 121.064 977.827 116.36 979.523 112.04C981.251 107.688 983.683 103.928 986.819 100.76C989.955 97.592 993.715 95.112 998.099 93.32C1002.48 91.496 1007.35 90.584 1012.69 90.584C1018.03 90.584 1022.9 91.496 1027.28 93.32C1031.67 95.112 1035.41 97.608 1038.51 100.808C1041.65 103.976 1044.07 107.736 1045.76 112.088C1047.49 116.408 1048.35 121.096 1048.35 126.152ZM1033.62 126.152C1033.62 122.504 1033.14 119.24 1032.18 116.36C1031.22 113.448 1029.83 110.984 1028 108.968C1026.21 106.92 1024.02 105.368 1021.43 104.312C1018.87 103.224 1015.95 102.68 1012.69 102.68C1009.43 102.68 1006.5 103.224 1003.91 104.312C1001.31 105.368 999.107 106.92 997.283 108.968C995.491 110.984 994.115 113.448 993.155 116.36C992.195 119.24 991.715 122.504 991.715 126.152C991.715 129.832 992.195 133.128 993.155 136.04C994.115 138.92 995.491 141.368 997.283 143.384C999.107 145.4 1001.31 146.952 1003.91 148.04C1006.5 149.096 1009.43 149.624 1012.69 149.624C1015.95 149.624 1018.87 149.096 1021.43 148.04C1024.02 146.952 1026.21 145.4 1028 143.384C1029.83 141.368 1031.22 138.92 1032.18 136.04C1033.14 133.128 1033.62 129.832 1033.62 126.152ZM1105 149.288V161H1063.67V91.352H1078.07V149.288H1105ZM1155.4 134.552L1147.86 113.24C1147.41 112.12 1146.93 110.808 1146.42 109.304C1145.94 107.8 1145.48 106.168 1145.03 104.408C1144.58 106.2 1144.1 107.864 1143.59 109.4C1143.11 110.904 1142.64 112.216 1142.2 113.336L1134.71 134.552H1155.4ZM1179.59 161H1168.4C1167.16 161 1166.13 160.712 1165.33 160.136C1164.56 159.528 1163.99 158.76 1163.6 157.832L1158.9 144.536H1131.16L1126.45 157.832C1126.13 158.632 1125.57 159.368 1124.77 160.04C1123.97 160.68 1122.96 161 1121.75 161H1110.47L1137.68 91.352H1152.42L1179.59 161Z" fill="#0066F5"/>
</svg>
