<svg width="200" height="200" viewBox="0 0 200 200" fill="none" xmlns="http://www.w3.org/2000/svg">
<path d="M188.271 0H11.7294C5.25145 0 0 5.83469 0 13.0321V186.968C0 194.165 5.25145 200 11.7294 200H188.271C194.749 200 200 194.165 200 186.968V13.0321C200 5.83469 194.749 0 188.271 0Z" fill="#0066F5"/>
<path d="M100 25C58.585 25 25 58.585 25 100C25 141.415 58.585 175 100 175C141.415 175 175 141.415 175 100C175 58.585 141.415 25 100 25ZM134.244 83.477C134.277 84.2152 134.293 84.9567 134.293 85.7018C134.293 108.449 116.978 134.68 85.3138 134.681H85.3149H85.3138C75.592 134.681 66.5455 131.832 58.9272 126.949C60.2741 127.108 61.6451 127.187 63.0333 127.187C71.0991 127.187 78.5217 124.435 84.4143 119.818C76.8784 119.678 70.5246 114.701 68.3319 107.861C69.3813 108.062 70.4605 108.172 71.5672 108.172C73.1384 108.172 74.6605 107.961 76.107 107.566C68.2301 105.989 62.2963 99.0273 62.2963 90.6914C62.2963 90.6136 62.2963 90.5437 62.2986 90.4716C64.6183 91.7614 67.271 92.5373 70.0954 92.6243C65.4732 89.5401 62.4348 84.2678 62.4348 78.2951C62.4348 75.1411 63.2874 72.1863 64.7659 69.6423C73.2552 80.0587 85.9421 86.9091 100.249 87.6289C99.9542 86.3678 99.802 85.054 99.802 83.7036C99.802 74.2004 107.512 66.4906 117.019 66.4906C121.97 66.4906 126.443 68.5837 129.584 71.9299C133.506 71.1563 137.189 69.7235 140.516 67.7517C139.228 71.7697 136.5 75.1411 132.945 77.2732C136.428 76.8566 139.746 75.9331 142.831 74.5621C140.527 78.0148 137.605 81.0474 134.244 83.477V83.477Z" fill="white"/>
</svg>
